# xmcd
#
# Track frame offsets:
#	150
#	16983
#	32670
#	49542
#	69012
#	86803
#	105030
#	122392
#	138902
#	158793
#	174226
#	195131
#	210755
#
# Disc length: 3336 seconds
#
# Revision: 1
# Processed by: cddbd v1.5.2PL0 Copyright (c) Steve Scherf et al.
# Submitted via: audiograbber 1.83.01
#
DISCID=860d060d
DTITLE=Steven Seagal - Mojo priest
DYEAR=1900
DGENRE=Blues
TTITLE0=She dat pretty
TTITLE1=Red rooster
TTITLE2=Gunfire in a juke joint
TTITLE3=My time is numbered
TTITLE4=Dark angel
TTITLE5=Alligator ass
TTITLE6=Talk to my ass
TTITLE7=Love doctor
TTITLE8=Hoochie koochie man
TTITLE9=Barbeque
TTITLE10=Dust my broom
TTITLE11=Shake
TTITLE12=Slow boat to China
EXTD=
EXTT0=
EXTT1=
EXTT2=
EXTT3=
EXTT4=
EXTT5=
EXTT6=
EXTT7=
EXTT8=
EXTT9=
EXTT10=
EXTT11=
EXTT12=
PLAYORDER=
